# xmcd
#
# Track frame offsets:
#	150
#	19875
#	38129
#	54814
#	73661
#	90014
#	112051
#	129968
#	148794
#	168740
#	187957
#	204739
#	223528
#	241654
#	261103
#	280927
#	297741
#
# Disc length: 4262 seconds
#
# Revision: 1
# Processed by: cddbd v1.5.2PL0 Copyright (c) Steve Scherf et al.
# Submitted via: EasyCDDAExtractor 15.3.0.1
#
DISCID=fc10a411
DTITLE=Gloria Estefan - The Standards (Deluxe Edition)
DYEAR=2013
DGENRE=Pop
TTITLE0=Good Morning Heartache
TTITLE1=They Can't Take That Away From Me
TTITLE2=What A Difference A Day Makes
TTITLE3=I've Grown Accustomed To His Face
TTITLE4=Eu Sei Que Vou Te Amar
TTITLE5=The Day You Say You Love Me
TTITLE6=Embraceable You
TTITLE7=What A Wonderful World
TTITLE8=Call Me Irresponsible
TTITLE9=How Long Has This Been Going On
TTITLE10=Sonrie (Duet With Laura Pausini)
TTITLE11=The Way You Look Tonight
TTITLE12=You Made Me Love You
TTITLE13=For All We Know
TTITLE14=Young At Heart
TTITLE15=Smile
TTITLE16=El Dia Que Me Quieras
EXTD=
EXTT0=
EXTT1=
EXTT2=
EXTT3=
EXTT4=
EXTT5=
EXTT6=
EXTT7=
EXTT8=
EXTT9=
EXTT10=
EXTT11=
EXTT12=
EXTT13=
EXTT14=
EXTT15=
EXTT16=
PLAYORDER=
